<svg width="153" height="23" viewBox="0 0 153 23" fill="none" xmlns="http://www.w3.org/2000/svg">
<path d="M4.17188 2.84375C3.65104 2.84375 3.20312 3.03125 2.82812 3.40625C2.53646 3.69792 2.35938 4.05729 2.29688 4.48438C3.05729 5.20312 3.4375 6.16146 3.4375 7.35938V9.71875C3.66667 9.8125 3.91146 9.85938 4.17188 9.85938H11.5469C12.6927 9.85938 13.6719 10.2708 14.4844 11.0938C15.3073 11.9062 15.7188 12.8854 15.7188 14.0312V18.8281C15.7188 19.974 15.3073 20.9583 14.4844 21.7812C13.6719 22.5938 12.6927 23 11.5469 23H4.17188C3.02604 23 2.04167 22.5938 1.21875 21.7812C0.40625 20.9583 0 19.974 0 18.8281H1.14062H2.28125H3.4375V20.5781C3.66667 20.6719 3.91146 20.7188 4.17188 20.7188H11.5469C12.0677 20.7188 12.5104 20.5365 12.875 20.1719C13.25 19.7969 13.4375 19.349 13.4375 18.8281V14.0312C13.4375 13.5104 13.25 13.0677 12.875 12.7031C12.5104 12.3281 12.0677 12.1406 11.5469 12.1406H4.17188C3.02604 12.1406 2.04167 11.7292 1.21875 10.9062C0.40625 10.0938 0 9.11458 0 7.96875V4.73438C0 3.58854 0.40625 2.60938 1.21875 1.79688C2.04167 0.973958 3.02604 0.5625 4.17188 0.5625H11.5469C12.6927 0.5625 13.6719 0.973958 14.4844 1.79688C15.3073 2.60938 15.7188 3.58854 15.7188 4.73438H13.4375C13.4375 4.21354 13.25 3.77083 12.875 3.40625C12.5104 3.03125 12.0677 2.84375 11.5469 2.84375H4.17188Z" fill="white"/>
<path d="M30.3906 0.5625C31.5365 0.5625 32.5156 0.973958 33.3281 1.79688C34.151 2.60938 34.5625 3.58854 34.5625 4.73438V8.75C34.5625 9.89583 34.151 10.8802 33.3281 11.7031C32.5156 12.5156 31.5365 12.9219 30.3906 12.9219H22.2812V23H21.125H19.9844H18.8438V1.70312V0.5625H19.9844H30.3906ZM32.2812 8.75V4.73438C32.2812 4.21354 32.0938 3.77083 31.7188 3.40625C31.3542 3.03125 30.9115 2.84375 30.3906 2.84375H21.125V4.46875C21.8958 5.1875 22.2812 6.15104 22.2812 7.35938V10.6406H30.3906C30.9115 10.6406 31.3542 10.4583 31.7188 10.0938C32.0938 9.71875 32.2812 9.27083 32.2812 8.75Z" fill="white"/>
<path d="M49.2344 0.5625C50.3802 0.5625 51.3594 0.973958 52.1719 1.79688C52.9948 2.60938 53.4062 3.58854 53.4062 4.73438V23H51.125V12.9219H41.125V23H39.9688H38.8281H37.6875V4.73438C37.6875 3.58854 38.0938 2.60938 38.9062 1.79688C39.7292 0.973958 40.7135 0.5625 41.8594 0.5625H49.2344ZM51.125 10.6406V4.73438C51.125 4.21354 50.9375 3.77083 50.5625 3.40625C50.1979 3.03125 49.7552 2.84375 49.2344 2.84375H41.8594C41.3385 2.84375 40.8906 3.03125 40.5156 3.40625C40.224 3.69792 40.0469 4.05729 39.9844 4.48438C40.7448 5.20312 41.125 6.16146 41.125 7.35938V10.6406H51.125Z" fill="white"/>
<path d="M68.0781 0.5625C69.224 0.5625 70.2031 0.973958 71.0156 1.79688C71.8385 2.60938 72.25 3.58854 72.25 4.73438V8.67188H69.9688V4.73438C69.9688 4.21354 69.7812 3.77083 69.4062 3.40625C69.0417 3.03125 68.599 2.84375 68.0781 2.84375H60.7031C60.1823 2.84375 59.7344 3.03125 59.3594 3.40625C59.2656 3.5 59.1823 3.60938 59.1094 3.73438C59.7969 4.41146 60.1406 5.31771 60.1406 6.45312V20.6406C60.3177 20.6927 60.5052 20.7188 60.7031 20.7188H68.0781C68.599 20.7188 69.0417 20.5365 69.4062 20.1719C69.7812 19.7969 69.9688 19.349 69.9688 18.8281V14.8906H72.25V18.8281C72.25 19.974 71.8385 20.9583 71.0156 21.7812C70.2031 22.5938 69.224 23 68.0781 23H60.7031C59.5573 23 58.5729 22.5938 57.75 21.7812C56.9375 20.9583 56.5312 19.974 56.5312 18.8281V4.73438C56.5312 3.58854 56.9375 2.60938 57.75 1.79688C58.5729 0.973958 59.5573 0.5625 60.7031 0.5625H68.0781Z" fill="white"/>
<path d="M76.5938 1.79688C77.4167 0.973958 78.401 0.5625 79.5469 0.5625H91.0938V2.84375H79.5469C79.026 2.84375 78.5781 3.03125 78.2031 3.40625C77.974 3.63542 77.8125 3.91146 77.7188 4.23438C78.1042 4.71354 78.4219 5.19271 78.6719 5.67188C78.9323 6.14062 79.0625 6.70312 79.0625 7.35938V10.6406H89.1875V12.9219H79.0625V20.6562C79.2188 20.6979 79.3802 20.7188 79.5469 20.7188H91.0938V23H79.5469C78.401 23 77.4167 22.5938 76.5938 21.7812C75.7812 20.9583 75.375 19.974 75.375 18.8281V4.73438C75.375 3.58854 75.7812 2.60938 76.5938 1.79688Z" fill="white"/>
<path d="M94.2188 2.84375V0.5625H109.938V2.84375H103.219V4.46875C103.99 5.1875 104.375 6.15104 104.375 7.35938V23H102.078H100.938V2.84375H94.2188Z" fill="white"/>
<path d="M125.922 11.875C126.745 12.6875 127.156 13.6667 127.156 14.8125V23H124.875V14.8125C124.875 14.2917 124.688 13.849 124.312 13.4844C123.948 13.1094 123.505 12.9219 122.984 12.9219H121.297H114.875V23H113.719H112.578H111.438V1.70312V0.5625H112.578H121.297C122.443 0.5625 123.427 0.973958 124.25 1.79688C125.062 2.60938 125.469 3.58854 125.469 4.73438V8.75C125.469 9.60417 125.234 10.3698 124.766 11.0469C125.203 11.2656 125.589 11.5417 125.922 11.875ZM123.203 8.75V4.73438C123.203 4.21354 123.016 3.77083 122.641 3.40625C122.266 3.03125 121.818 2.84375 121.297 2.84375H113.719V4.46875C114.49 5.1875 114.875 6.15104 114.875 7.35938V10.6406H121.297C121.818 10.6406 122.266 10.4583 122.641 10.0938C123.016 9.71875 123.203 9.27083 123.203 8.75Z" fill="white"/>
<path d="M132.562 0.5625V4.46875C133.333 5.1875 133.719 6.15104 133.719 7.35938V23H131.422H130.281V0.5625H132.562Z" fill="white"/>
<path d="M148.422 0.5625C149.568 0.5625 150.547 0.973958 151.359 1.79688C152.182 2.60938 152.594 3.58854 152.594 4.73438V8.75C152.594 9.89583 152.182 10.8802 151.359 11.7031C150.547 12.5156 149.568 12.9219 148.422 12.9219H140.312V23H139.156H138.016H136.875V1.70312V0.5625H138.016H148.422ZM150.312 8.75V4.73438C150.312 4.21354 150.125 3.77083 149.75 3.40625C149.385 3.03125 148.943 2.84375 148.422 2.84375H139.156V4.46875C139.927 5.1875 140.312 6.15104 140.312 7.35938V10.6406H148.422C148.943 10.6406 149.385 10.4583 149.75 10.0938C150.125 9.71875 150.312 9.27083 150.312 8.75Z" fill="white"/>
</svg>
